<svg width="386" height="394" viewBox="0 0 386 394" fill="none" xmlns="http://www.w3.org/2000/svg">
    <g clip-path="url(#clip0_74_445)">
        <path
            d="M261.07 19.4928L74.3188 86.7423L56.1165 142.362C53.6303 148.878 26.2935 244.247 33.7853 247.095L198.666 209.218L287.047 333.001C294.533 335.843 341.71 255.489 344.196 248.973L372.87 200.031L277.963 25.9091C274.328 20.6065 267.319 17.9414 261.07 19.4928Z"
            fill="#FFB700" />
        <path
            d="M374.751 92.394C371.888 99.9074 363.614 103.742 356.266 100.949C348.924 98.1565 345.289 89.8008 348.158 82.2874L340.811 79.4948C337.947 87.0083 329.673 90.8425 322.325 88.0499C314.983 85.2573 311.349 76.9017 314.218 69.3883L306.87 66.5957C304.007 74.1146 295.732 77.9434 288.385 75.1508C281.043 72.3582 277.408 64.0026 280.271 56.4891L272.924 53.6966C270.06 61.2155 261.786 65.0442 254.439 62.2516C247.097 59.4591 243.462 51.1034 246.331 43.59L238.983 40.7974C236.12 48.3164 227.845 52.1451 220.498 49.3525C213.156 46.5599 209.521 38.2043 212.39 30.6909L205.043 27.8983C202.179 35.4172 193.905 39.246 186.557 36.4534C179.215 33.6608 175.58 25.3051 178.449 17.7917L171.102 14.9991C168.238 22.5125 159.964 26.3468 152.617 23.5542C145.275 20.7616 141.64 12.406 144.509 4.89259L135.175 1.34644L34.407 265.734L283.873 360.522L384.635 96.1507L374.751 92.394Z"
            fill="white" />
        <path
            d="M284.489 361.885L283.501 361.508L33.0417 266.344L33.4191 265.358L134.558 0L145.868 4.29971L145.491 5.28599C144.203 8.66038 144.281 12.3229 145.702 15.592C147.117 18.8556 149.709 21.3379 152.994 22.5846C159.781 25.1666 167.461 21.5983 170.114 14.639L170.491 13.6527L179.815 17.1933L179.437 18.1796C176.785 25.1389 180.147 32.9017 186.935 35.4782C193.722 38.0547 201.402 34.4919 204.055 27.5326L204.432 26.5463L213.755 30.0869L213.378 31.0732C212.09 34.4476 212.162 38.1101 213.589 41.3792C215.004 44.6428 217.595 47.1251 220.881 48.3718C227.668 50.9483 235.348 47.3855 238.001 40.4262L238.378 39.4399L247.701 42.9805L247.324 43.9668C244.671 50.9261 248.034 58.6889 254.821 61.2654C258.107 62.5121 261.692 62.3791 264.921 60.883C268.162 59.3815 270.654 56.6997 271.942 53.3198L272.319 52.3335L281.642 55.8741L281.265 56.8604C278.612 63.8197 281.975 71.5825 288.762 74.159C292.047 75.4057 295.632 75.2671 298.862 73.7766C302.103 72.2751 304.595 69.5933 305.882 66.2134L306.26 65.2271L315.583 68.7677L315.205 69.754C313.918 73.1284 313.99 76.7909 315.416 80.06C316.831 83.3236 319.423 85.8059 322.708 87.0526C329.495 89.6346 337.176 86.0663 339.828 79.107L340.206 78.1207L349.529 81.6613L349.152 82.6476C346.499 89.6069 349.862 97.3697 356.649 99.9462C363.436 102.523 371.116 98.9599 373.769 92.0006L374.146 91.0143L386.011 95.519L385.634 96.5053L284.494 361.863L284.489 361.885ZM35.7721 265.125L283.262 359.159L383.27 96.7602L375.328 93.7404C371.938 101.143 363.441 104.8 355.889 101.935C348.336 99.0652 344.429 90.6874 346.821 82.908L341.388 80.8413C337.997 88.2439 329.501 91.9008 321.948 89.0362C318.13 87.5845 315.117 84.6977 313.468 80.9133C311.964 77.4558 311.765 73.6215 312.88 70.0144L307.447 67.9477C305.877 71.383 303.174 74.1146 299.75 75.6993C295.999 77.4336 291.825 77.5943 288.007 76.1426C280.454 73.2724 276.548 64.8946 278.939 57.1153L273.506 55.0485C271.936 58.4839 269.233 61.2155 265.809 62.8002C262.058 64.5345 257.885 64.6952 254.067 63.2435C246.514 60.3733 242.607 51.9955 244.999 44.2161L239.566 42.1494C236.175 49.552 227.679 53.209 220.126 50.3443C216.308 48.8926 213.295 46.0058 211.646 42.2214C210.142 38.7639 209.943 34.9296 211.058 31.3225L205.625 29.2558C202.234 36.6584 193.738 40.3153 186.185 37.4507C178.632 34.5806 174.726 26.2028 177.117 18.4234L171.685 16.3566C168.294 23.7592 159.798 27.4218 152.245 24.5516C148.427 23.0999 145.413 20.2131 143.765 16.4287C142.261 12.9712 142.061 9.13689 143.177 5.52979L135.785 2.72057L35.7721 265.125Z"
            fill="#DBDBDB" />
        <path
            d="M191.801 235.897L285.138 194.983C309.65 184.239 338.924 183.901 365.639 194.052C371.915 196.435 375.484 202.347 373.614 207.262L338.968 298.16L305.649 385.578C303.779 390.487 292.452 394.72 286.176 392.338L247.59 377.677L187.573 246.979C185.564 242.607 187.384 237.831 191.796 235.902L191.801 235.897Z"
            fill="#006CE4" />
        <path
            d="M186.074 233.586L143.593 141.07C132.438 116.774 110.795 97.087 84.0747 86.9362C77.7982 84.5536 71.1944 86.5982 69.3242 91.5074L34.6788 182.405L0.954532 270.893C-0.915644 275.802 3.88466 285.078 10.1611 287.46L49.9953 302.454L181.851 244.657C186.263 242.723 188.083 237.953 186.074 233.581V233.586Z"
            fill="#006CE4" />
        <path
            d="M319.562 349.08L304.905 387.534C302.713 393.28 294.866 395.635 287.38 392.792L10.1611 287.46C2.67481 284.618 -1.62049 277.653 0.571553 271.901L15.2277 233.448L192.439 200.18C195.325 199.637 198.411 199.948 201.269 200.945C204.449 202.053 207.334 204.015 209.332 206.597L319.556 349.08H319.562Z"
            fill="#006CE4" />
        <path d="M21.3433 217.413L170.93 200.602L172.461 203.932L15.2278 233.448L21.3433 217.413Z"
            fill="#0766D7" />
        <path d="M325.672 333.045L225.126 221.191L221.763 222.665L319.562 349.08L325.672 333.045Z"
            fill="#0766D7" />
    </g>
    <defs>
        <clipPath id="clip0_74_445">
            <rect width="386" height="394" fill="white" />
        </clipPath>
    </defs>
</svg>
    