<svg width="36" height="37" viewBox="0 0 36 37" fill="none" xmlns="http://www.w3.org/2000/svg">
    <path
        d="M13.2526 25.6501L2.8606 36.0422C3.51638 36.356 4.24862 36.537 5.0251 36.537H19.0703L13.2526 25.6501Z"
        fill="white" />
    <path d="M0 16.3604V29.4238L8.51319 20.9106L0 16.3604Z" fill="white" />
    <path
        d="M30.9709 0.528926H5.02503C2.24899 0.528926 0 2.77792 0 5.55396V11.3273L2.02772 11.5969L3.48815 10.1364C4.00313 9.62146 4.83996 9.62146 5.35896 10.1364C5.87394 10.6514 5.87394 11.4882 5.35896 12.0072L5.32678 12.0394L15.9642 13.4637L19.9191 9.50881C20.6835 8.74439 21.5284 8.08056 22.4336 7.5334C23.3388 6.98623 24.3044 6.5477 25.3022 6.24596C26.1632 5.98445 26.9517 6.20572 27.4546 6.71265C27.9616 7.21958 28.1828 8.00411 27.9213 8.86509C27.6156 9.86285 27.181 10.8284 26.6339 11.7337C26.0827 12.6389 25.4229 13.4878 24.6585 14.2482L20.7036 18.203L22.1278 28.8405L22.16 28.8083C22.675 28.2933 23.5118 28.2933 24.0308 28.8083C24.5458 29.3233 24.5458 30.1601 24.0308 30.6791L22.5704 32.1396L23.1578 36.541H30.975C33.751 36.541 36 34.292 36 31.516V5.54994C36 2.7739 33.751 0.524902 30.975 0.524902L30.9709 0.528926Z"
        fill="white" />
</svg>
    