<svg width="31" height="33" viewBox="0 0 31 33" fill="none" xmlns="http://www.w3.org/2000/svg">
    <path fill-rule="evenodd" clip-rule="evenodd"
        d="M8.49825 5.18912C8.49905 6.02987 8.25043 6.85196 7.78385 7.55135C7.31726 8.25074 6.65368 8.796 5.87708 9.11811C5.10049 9.44022 4.2458 9.52471 3.42117 9.36089C2.59654 9.19707 1.83904 8.7923 1.24454 8.1978C0.650044 7.6033 0.245271 6.8458 0.0814482 6.02117C-0.0823746 5.19654 0.00211715 4.34185 0.32423 3.56526C0.646344 2.78866 1.1916 2.12508 1.89099 1.65849C2.59038 1.19191 3.41247 0.943284 4.25322 0.944094C5.37874 0.945178 6.45785 1.39277 7.25371 2.18863C8.04957 2.98449 8.49716 4.0636 8.49825 5.18912ZM6.48804 11.2068H2.01787C1.43684 11.2068 0.96582 11.6778 0.96582 12.2588V31.0033C0.96582 31.5843 1.43684 32.0553 2.01787 32.0553H6.48804C7.06907 32.0553 7.54009 31.5843 7.54009 31.0033V12.2588C7.54009 11.6778 7.06907 11.2068 6.48804 11.2068ZM30.9102 31.0896V22.0142L30.9102 21.9455C30.9105 17.9894 30.911 10.8961 23.288 10.9001C19.8208 10.9001 18.1915 12.1773 17.0944 13.8148V12.1773C17.0945 12.0485 17.0688 11.921 17.0191 11.8022C16.9693 11.6835 16.8964 11.5758 16.8045 11.4855C16.7127 11.3952 16.6038 11.324 16.4842 11.2763C16.3646 11.2285 16.2367 11.205 16.1079 11.2072H11.4658C11.3386 11.2072 11.2126 11.2323 11.0951 11.2811C10.9777 11.3299 10.871 11.4014 10.7812 11.4916C10.6914 11.5817 10.6204 11.6887 10.5721 11.8064C10.5238 11.9241 10.4992 12.0501 10.4997 12.1773V31.0896C10.4992 31.2166 10.5238 31.3425 10.5721 31.46C10.6205 31.5774 10.6916 31.6841 10.7815 31.774C10.8713 31.8638 10.978 31.9349 11.0954 31.9833C11.2129 32.0316 11.3388 32.0562 11.4658 32.0557H16.1079C16.3592 32.0536 16.5998 31.9537 16.7786 31.7772C16.9575 31.6006 17.0605 31.3613 17.0658 31.1101V20.9662C17.1927 19.6031 17.7944 16.5656 20.75 16.5656C24.2823 16.5656 24.2137 20.3599 24.1847 21.9613C24.1824 22.0877 24.1804 22.2005 24.1804 22.2966V31.0896C24.1804 31.3458 24.2822 31.5916 24.4634 31.7727C24.6445 31.9539 24.8903 32.0557 25.1465 32.0557H29.9442C30.2004 32.0557 30.4461 31.9539 30.6273 31.7727C30.8084 31.5916 30.9102 31.3458 30.9102 31.0896Z"
        fill="white" />
</svg>
    