<svg width="32" height="23" viewBox="0 0 32 23" fill="none" xmlns="http://www.w3.org/2000/svg">
    <path
        d="M31.2437 4.25828C30.6042 2.38855 28.4878 1.28335 26.5229 1.02587C19.519 0.324711 12.4558 0.324711 5.45182 1.02587C3.50376 1.28335 1.38739 2.40439 0.747856 4.25828C-0.249285 9.04146 -0.249285 13.9615 0.747856 18.7447C1.40422 20.6105 3.52059 21.7196 5.48548 21.9771C12.4897 22.6743 19.5524 22.6743 26.5566 21.9771C28.5046 21.7196 30.621 20.5946 31.2605 18.7447C32.2521 13.9605 32.2464 9.04043 31.2437 4.25828ZM12.1796 17.2671V5.73187L22.1555 11.4995C18.7938 13.4445 15.5288 15.338 12.1796 17.2671Z"
        fill="white" />
</svg>
    